<svg width="58" height="58" viewBox="0 0 58 58" fill="none" xmlns="http://www.w3.org/2000/svg">
<g filter="url(#filter0_d)">
<circle cx="29" cy="25" r="25" fill="#F5EBEB"/>
</g>
<path d="M47.3125 35.5605C47.3125 35.6543 47.2891 35.7363 47.2422 35.8066C47.1953 35.8652 47.1191 35.918 47.0137 35.9648C46.9082 36.0117 46.7617 36.0469 46.5742 36.0703C46.3867 36.0938 46.1523 36.1055 45.8711 36.1055C45.5781 36.1055 45.3379 36.0938 45.1504 36.0703C44.9629 36.0469 44.8164 36.0117 44.7109 35.9648C44.6055 35.918 44.5293 35.8652 44.4824 35.8066C44.4355 35.7363 44.4121 35.6543 44.4121 35.5605V26.2969C44.4121 25.3945 44.3418 24.668 44.2012 24.1172C44.0605 23.5664 43.8555 23.0918 43.5859 22.6934C43.3164 22.2949 42.9648 21.9902 42.5312 21.7793C42.1094 21.5684 41.6172 21.4629 41.0547 21.4629C40.3281 21.4629 39.6016 21.7207 38.875 22.2363C38.1484 22.752 37.3867 23.5078 36.5898 24.5039V35.5605C36.5898 35.6543 36.5664 35.7363 36.5195 35.8066C36.4727 35.8652 36.3965 35.918 36.291 35.9648C36.1855 36.0117 36.0391 36.0469 35.8516 36.0703C35.6641 36.0938 35.4238 36.1055 35.1309 36.1055C34.8496 36.1055 34.6152 36.0938 34.4277 36.0703C34.2402 36.0469 34.0879 36.0117 33.9707 35.9648C33.8652 35.918 33.7891 35.8652 33.7422 35.8066C33.707 35.7363 33.6895 35.6543 33.6895 35.5605V12.0762C33.6895 11.9824 33.707 11.9004 33.7422 11.8301C33.7891 11.7598 33.8652 11.7012 33.9707 11.6543C34.0879 11.6074 34.2402 11.5723 34.4277 11.5488C34.6152 11.5254 34.8496 11.5137 35.1309 11.5137C35.4238 11.5137 35.6641 11.5254 35.8516 11.5488C36.0391 11.5723 36.1855 11.6074 36.291 11.6543C36.3965 11.7012 36.4727 11.7598 36.5195 11.8301C36.5664 11.9004 36.5898 11.9824 36.5898 12.0762V21.5508C37.4219 20.6719 38.2598 20.0215 39.1035 19.5996C39.9473 19.166 40.7969 18.9492 41.6523 18.9492C42.707 18.9492 43.5918 19.1309 44.3066 19.4941C45.0332 19.8457 45.6191 20.3203 46.0645 20.918C46.5098 21.5156 46.8262 22.2188 47.0137 23.0273C47.2129 23.8242 47.3125 24.791 47.3125 25.9277V35.5605Z" fill="black"/>
<path d="M36.1562 35.5605C36.1562 35.6543 36.1328 35.7363 36.0859 35.8066C36.0391 35.8652 35.9629 35.918 35.8574 35.9648C35.752 36.0117 35.6055 36.0469 35.418 36.0703C35.2305 36.0938 34.9961 36.1055 34.7148 36.1055C34.4219 36.1055 34.1816 36.0938 33.9941 36.0703C33.8066 36.0469 33.6543 36.0117 33.5371 35.9648C33.4316 35.918 33.3555 35.8652 33.3086 35.8066C33.2617 35.7363 33.2383 35.6543 33.2383 35.5605V25.9453C33.2383 25.2773 33.1797 24.668 33.0625 24.1172C32.9453 23.5664 32.7578 23.0918 32.5 22.6934C32.2422 22.2949 31.9141 21.9902 31.5156 21.7793C31.1172 21.5684 30.6484 21.4629 30.1094 21.4629C29.4414 21.4629 28.7676 21.7207 28.0879 22.2363C27.4199 22.752 26.6816 23.5078 25.873 24.5039V35.5605C25.873 35.6543 25.8496 35.7363 25.8027 35.8066C25.7559 35.8652 25.6738 35.918 25.5566 35.9648C25.4512 36.0117 25.3047 36.0469 25.1172 36.0703C24.9297 36.0938 24.6953 36.1055 24.4141 36.1055C24.1445 36.1055 23.9102 36.0938 23.7109 36.0703C23.5234 36.0469 23.3711 36.0117 23.2539 35.9648C23.1484 35.918 23.0723 35.8652 23.0254 35.8066C22.9902 35.7363 22.9727 35.6543 22.9727 35.5605V25.9453C22.9727 25.2773 22.9082 24.668 22.7793 24.1172C22.6504 23.5664 22.457 23.0918 22.1992 22.6934C21.9414 22.2949 21.6133 21.9902 21.2148 21.7793C20.8281 21.5684 20.3652 21.4629 19.8262 21.4629C19.1582 21.4629 18.4844 21.7207 17.8047 22.2363C17.125 22.752 16.3867 23.5078 15.5898 24.5039V35.5605C15.5898 35.6543 15.5664 35.7363 15.5195 35.8066C15.4727 35.8652 15.3965 35.918 15.291 35.9648C15.1855 36.0117 15.0391 36.0469 14.8516 36.0703C14.6641 36.0938 14.4238 36.1055 14.1309 36.1055C13.8496 36.1055 13.6152 36.0938 13.4277 36.0703C13.2402 36.0469 13.0879 36.0117 12.9707 35.9648C12.8652 35.918 12.7891 35.8652 12.7422 35.8066C12.707 35.7363 12.6895 35.6543 12.6895 35.5605V19.7402C12.6895 19.6465 12.707 19.5703 12.7422 19.5117C12.7773 19.4414 12.8477 19.3828 12.9531 19.3359C13.0586 19.2773 13.1934 19.2422 13.3574 19.2305C13.5215 19.207 13.7383 19.1953 14.0078 19.1953C14.2656 19.1953 14.4766 19.207 14.6406 19.2305C14.8164 19.2422 14.9512 19.2773 15.0449 19.3359C15.1387 19.3828 15.2031 19.4414 15.2383 19.5117C15.2852 19.5703 15.3086 19.6465 15.3086 19.7402V21.832C16.1992 20.8359 17.0605 20.1094 17.8926 19.6523C18.7363 19.1836 19.5859 18.9492 20.4414 18.9492C21.0977 18.9492 21.6836 19.0254 22.1992 19.1777C22.7266 19.3301 23.1895 19.5469 23.5879 19.8281C23.9863 20.0977 24.3262 20.4258 24.6074 20.8125C24.8887 21.1875 25.123 21.6094 25.3105 22.0781C25.8379 21.5039 26.3359 21.0176 26.8047 20.6191C27.2852 20.2207 27.7422 19.8984 28.1758 19.6523C28.6211 19.4062 29.0488 19.2305 29.459 19.125C29.8809 19.0078 30.3027 18.9492 30.7246 18.9492C31.7441 18.9492 32.5996 19.1309 33.291 19.4941C33.9824 19.8457 34.5391 20.3203 34.9609 20.918C35.3945 21.5156 35.6992 22.2188 35.875 23.0273C36.0625 23.8242 36.1562 24.668 36.1562 25.5586V35.5605Z" fill="black"/>
<defs>
<filter id="filter0_d" x="0" y="0" width="58" height="58" filterUnits="userSpaceOnUse" color-interpolation-filters="sRGB">
<feFlood flood-opacity="0" result="BackgroundImageFix"/>
<feColorMatrix in="SourceAlpha" type="matrix" values="0 0 0 0 0 0 0 0 0 0 0 0 0 0 0 0 0 0 127 0"/>
<feOffset dy="4"/>
<feGaussianBlur stdDeviation="2"/>
<feColorMatrix type="matrix" values="0 0 0 0 0 0 0 0 0 0 0 0 0 0 0 0 0 0 0.25 0"/>
<feBlend mode="normal" in2="BackgroundImageFix" result="effect1_dropShadow"/>
<feBlend mode="normal" in="SourceGraphic" in2="effect1_dropShadow" result="shape"/>
</filter>
</defs>
</svg>
