<svg width="79" height="60" viewBox="0 0 79 60" fill="none" xmlns="http://www.w3.org/2000/svg">
<path d="M72.0625 54.1875C72.0625 54.3542 72.0208 54.5 71.9375 54.625C71.8542 54.75 71.7083 54.8542 71.5 54.9375C71.2917 55 71.0104 55.0521 70.6562 55.0938C70.3229 55.1562 69.9062 55.1875 69.4062 55.1875C68.8646 55.1875 68.4271 55.1562 68.0938 55.0938C67.7604 55.0521 67.4896 55 67.2812 54.9375C67.0729 54.8542 66.9271 54.75 66.8438 54.625C66.7604 54.5 66.7188 54.3542 66.7188 54.1875V36.25H48.3125V54.1875C48.3125 54.3542 48.2708 54.5 48.1875 54.625C48.1042 54.75 47.9583 54.8542 47.75 54.9375C47.5417 55 47.2604 55.0521 46.9062 55.0938C46.5729 55.1562 46.1458 55.1875 45.625 55.1875C45.125 55.1875 44.6979 55.1562 44.3438 55.0938C43.9896 55.0521 43.7083 55 43.5 54.9375C43.2917 54.8542 43.1458 54.75 43.0625 54.625C42.9792 54.5 42.9375 54.3542 42.9375 54.1875V15.375C42.9375 15.2083 42.9792 15.0625 43.0625 14.9375C43.1458 14.8125 43.2917 14.7188 43.5 14.6562C43.7083 14.5729 43.9896 14.5104 44.3438 14.4688C44.6979 14.4062 45.125 14.375 45.625 14.375C46.1458 14.375 46.5729 14.4062 46.9062 14.4688C47.2604 14.5104 47.5417 14.5729 47.75 14.6562C47.9583 14.7188 48.1042 14.8125 48.1875 14.9375C48.2708 15.0625 48.3125 15.2083 48.3125 15.375V31.5625H66.7188V15.375C66.7188 15.2083 66.7604 15.0625 66.8438 14.9375C66.9271 14.8125 67.0729 14.7188 67.2812 14.6562C67.4896 14.5729 67.7604 14.5104 68.0938 14.4688C68.4271 14.4062 68.8646 14.375 69.4062 14.375C69.9062 14.375 70.3229 14.4062 70.6562 14.4688C71.0104 14.5104 71.2917 14.5729 71.5 14.6562C71.7083 14.7188 71.8542 14.8125 71.9375 14.9375C72.0208 15.0625 72.0625 15.2083 72.0625 15.375V54.1875Z" fill="black"/>
<path d="M47.9688 54.1875C47.9688 54.3542 47.9271 54.5 47.8438 54.625C47.7604 54.75 47.6146 54.8542 47.4062 54.9375C47.1979 55 46.9271 55.0521 46.5938 55.0938C46.2812 55.1562 45.8646 55.1875 45.3438 55.1875C44.8646 55.1875 44.4479 55.1562 44.0938 55.0938C43.7604 55.0521 43.4896 55 43.2812 54.9375C43.0938 54.8542 42.9583 54.75 42.875 54.625C42.7917 54.5 42.75 54.3542 42.75 54.1875V18.9688H42.6875L28.2812 54.3438C28.2188 54.4896 28.125 54.6146 28 54.7188C27.8958 54.8229 27.7292 54.9167 27.5 55C27.2917 55.0625 27.0312 55.1042 26.7188 55.125C26.4271 55.1667 26.0729 55.1875 25.6562 55.1875C25.2188 55.1875 24.8438 55.1667 24.5312 55.125C24.2188 55.0833 23.9583 55.0312 23.75 54.9688C23.5417 54.8854 23.375 54.7917 23.25 54.6875C23.1458 54.5833 23.0729 54.4688 23.0312 54.3438L9.25 18.9688H9.21875V54.1875C9.21875 54.3542 9.17708 54.5 9.09375 54.625C9.01042 54.75 8.86458 54.8542 8.65625 54.9375C8.44792 55 8.17708 55.0521 7.84375 55.0938C7.51042 55.1562 7.08333 55.1875 6.5625 55.1875C6.0625 55.1875 5.64583 55.1562 5.3125 55.0938C4.97917 55.0521 4.70833 55 4.5 54.9375C4.3125 54.8542 4.17708 54.75 4.09375 54.625C4.03125 54.5 4 54.3542 4 54.1875V17C4 16.125 4.22917 15.5 4.6875 15.125C5.14583 14.75 5.65625 14.5625 6.21875 14.5625H9.46875C10.1354 14.5625 10.7188 14.625 11.2188 14.75C11.7188 14.875 12.1562 15.0729 12.5312 15.3438C12.9062 15.6146 13.2188 15.9583 13.4688 16.375C13.7188 16.7917 13.9375 17.2812 14.125 17.8438L25.8438 47.125H26L38.1875 17.9375C38.4167 17.3125 38.6667 16.7812 38.9375 16.3438C39.2083 15.9062 39.5 15.5625 39.8125 15.3125C40.1458 15.0417 40.5104 14.8542 40.9062 14.75C41.3021 14.625 41.7604 14.5625 42.2812 14.5625H45.6875C46 14.5625 46.2917 14.6146 46.5625 14.7188C46.8542 14.8021 47.0938 14.9479 47.2812 15.1562C47.4896 15.3438 47.6562 15.5938 47.7812 15.9062C47.9062 16.1979 47.9688 16.5625 47.9688 17V54.1875Z" fill="black"/>
<line x1="4" y1="57.5" x2="72" y2="57.5" stroke="black" stroke-width="5"/>
</svg>
